<svg xmlns="http://www.w3.org/2000/svg" xmlns:xlink="http://www.w3.org/1999/xlink" viewBox="0 0 1561.24 1563"><defs><style>.cls-1{isolation:isolate;}.cls-2{fill:url(#未命名的渐变_70);}.cls-14,.cls-3{fill:none;}.cls-4{fill:url(#未命名的渐变_69);}.cls-5{fill:url(#未命名的渐变_68);}.cls-6{fill:url(#未命名的渐变_68-2);}.cls-7{fill:url(#未命名的渐变_66);}.cls-8{fill:url(#未命名的渐变_6);}.cls-9{fill:url(#未命名的渐变_5);}.cls-10{fill:url(#未命名的渐变_4);}.cls-11{fill:url(#未命名的渐变_3);}.cls-12{mix-blend-mode:multiply;}.cls-13{fill:url(#未命名的渐变_9);}.cls-14{stroke:#fff;stroke-miterlimit:10;stroke-opacity:0.7;stroke-width:28px;mix-blend-mode:overlay;}</style><linearGradient id="未命名的渐变_70" x1="780.64" y1="1483.24" x2="780.64" y2="18.37" gradientTransform="translate(0 -4.37)" gradientUnits="userSpaceOnUse"><stop offset="0" stop-color="#fff" stop-opacity="0"/><stop offset="1" stop-color="#2a3cff" stop-opacity="0.5"/></linearGradient><linearGradient id="未命名的渐变_69" x1="780.62" y1="1553.37" x2="780.62" y2="88.44" gradientTransform="translate(0 -4.37)" gradientUnits="userSpaceOnUse"><stop offset="0" stop-color="#fff" stop-opacity="0"/><stop offset="0.97" stop-color="#002ee9" stop-opacity="0.5"/></linearGradient><linearGradient id="未命名的渐变_68" x1="506.48" y1="1501.2" x2="1079.67" y2="70.35" xlink:href="#未命名的渐变_70"/><linearGradient id="未命名的渐变_68-2" x1="470.55" y1="1501.2" x2="1043.74" y2="70.35" gradientTransform="matrix(-1, 0, 0, 1, 1525.32, -4.37)" xlink:href="#未命名的渐变_70"/><linearGradient id="未命名的渐变_66" x1="780.62" y1="-479.43" x2="780.62" y2="-1944.36" gradientTransform="matrix(1, 0, 0, -1, 0, -465.43)" gradientUnits="userSpaceOnUse"><stop offset="0" stop-color="#fff" stop-opacity="0"/><stop offset="1" stop-color="#1b1464" stop-opacity="0.5"/></linearGradient><linearGradient id="未命名的渐变_6" x1="468.12" y1="-525.24" x2="1061.53" y2="-2007.59" gradientTransform="translate(1525.32 -465.43) rotate(180)" gradientUnits="userSpaceOnUse"><stop offset="0" stop-color="#fff" stop-opacity="0"/><stop offset="1" stop-color="#abff4a" stop-opacity="0.5"/></linearGradient><linearGradient id="未命名的渐变_5" x1="-3535.95" y1="-525.24" x2="-2942.55" y2="-2007.59" gradientTransform="matrix(1, 0, 0, -1, 4040, -465.43)" gradientUnits="userSpaceOnUse"><stop offset="0" stop-color="#fff" stop-opacity="0"/><stop offset="1" stop-color="#abff4a" stop-opacity="0.5"/></linearGradient><linearGradient id="未命名的渐变_4" x1="512.96" y1="-553.82" x2="1093.83" y2="-1981.58" gradientTransform="matrix(1, 0, 0, -1, 0, -465.43)" gradientUnits="userSpaceOnUse"><stop offset="0" stop-color="#fff" stop-opacity="0"/><stop offset="1" stop-color="#ff6a3f" stop-opacity="0.5"/></linearGradient><linearGradient id="未命名的渐变_3" x1="473.26" y1="-555.42" x2="1069.47" y2="-1980.65" gradientTransform="translate(1525.32 -465.43) rotate(180)" gradientUnits="userSpaceOnUse"><stop offset="0" stop-color="#fff" stop-opacity="0"/><stop offset="1" stop-color="#ff4a4f" stop-opacity="0.5"/></linearGradient><linearGradient id="未命名的渐变_9" x1="780.64" y1="-549.56" x2="780.64" y2="-2014.43" gradientTransform="matrix(1, 0, 0, -1, 0, -465.43)" gradientUnits="userSpaceOnUse"><stop offset="0" stop-color="#fff" stop-opacity="0"/><stop offset="1" stop-color="#ff7d4a" stop-opacity="0.5"/></linearGradient></defs><g class="cls-1"><g id="图层_2" data-name="图层 2"><g id="图层_1-2" data-name="图层 1"><path class="cls-2" d="M1478.9,781.49c-33.45,69.8-77,137.72-125.33,201.62-89.43,118.15-195.54,222.57-285.68,299.7-74.58,61.59-177.63,140.39-287.13,196.06-109.51-55.67-212.55-134.48-287.13-196.06-89.71-76.56-196-181.29-285.7-299.86-48.31-63.87-91.81-131.76-125.3-201.42C4.69,619.42-19.06,447.7,76.76,294.6c70.94-100.93,174-167.9,289.09-211,81.23-30.44,168.45-49,254.63-59.24A1544.69,1544.69,0,0,1,780.76,14,1482.62,1482.62,0,0,1,941.13,24.33c85.64,10.31,173.22,29,254.65,59.39,132.84,49.54,249.34,130.1,314.46,255.84C1574.82,482,1548.73,635.84,1478.9,781.49Z"/><path class="cls-3" d="M82.63,781.53c-77.52,161-102.2,332.91-5.87,486.87,70.94,100.92,174,167.89,289.12,211,81.27,30.47,168.55,49,254.78,59.26A1543.76,1543.76,0,0,0,780.76,1549a1482.9,1482.9,0,0,0,160.12-10.31c85.75-10.3,173.43-29,254.95-59.43,132.82-49.54,249.3-130.09,314.41-255.83,64.89-143.42,38.12-297.28-31.34-441.94"/><path class="cls-3" d="M365.85,83.58c26-25.95,57-46.43,94-58.28,50.29-14.4,104.73-13.11,160.58-1"/><path class="cls-3" d="M207.93,983c8.33,96.91,22.8,189.34,43.41,270.74,21.48,79,55.2,166.59,114.54,225.73,26,25.94,57,46.41,94,58.28,50.69,14.45,105.21,13.08,160.76,1,53.23-11.58,107.41-33,160.1-59.81,52.69,26.8,106.88,48.23,160.12,59.82,55.54,12.1,110.05,13.47,160.74-1,37.12-11.88,68.14-32.41,94.21-58.44,59.23-59.14,92.88-146.65,114.35-225.57,20.6-81.37,35.06-173.75,43.39-270.58"/><path class="cls-3" d="M941.13,24.33c55.79-12.12,110.19-13.39,160.49,1,37.09,11.89,68.1,32.42,94.16,58.42"/><path class="cls-4" d="M1510.24,1223.43c-65.11,125.74-181.59,206.29-314.41,255.83-81.52,30.41-169.2,49.13-254.95,59.43A1482.9,1482.9,0,0,1,780.76,1549a1543.76,1543.76,0,0,1-160.1-10.32c-86.23-10.22-173.51-28.79-254.78-59.26-115.11-43.13-218.18-110.1-289.12-211-96.33-154-71.65-325.83,5.87-486.87,33.66-69.91,77.27-137.78,125.28-201.26,74.82-99,160.3-187.25,235.31-256,83.42-74.07,207.29-174.19,337.52-240.23C911,150.14,1035,250.31,1118.29,324.3c75.27,69.14,160.64,157.18,235.31,255.8,48.06,63.49,91.68,131.36,125.3,201.39C1548.36,926.15,1575.13,1080,1510.24,1223.43Z"/><path class="cls-3" d="M1353.6,580.1c-8.33-96.92-22.81-189.38-43.42-270.79-21.47-79-55.15-166.46-114.4-225.59-26.06-26-57.07-46.53-94.16-58.42-50.3-14.36-104.7-13.09-160.49-1-53,11.5-107.22,32.78-160.39,59.74C727.6,57.13,673.4,35.85,620.48,24.34c-55.85-12.15-110.29-13.44-160.58,1-37,11.85-68,32.33-94,58.28-59.33,59.14-93,146.74-114.52,225.73-20.62,81.48-35.1,174-43.42,271"/><path class="cls-3" d="M365.88,1479.42c26,25.94,57,46.41,94,58.28,50.69,14.45,105.21,13.08,160.76,1"/><path class="cls-3" d="M1478.9,781.49c69.83-145.65,95.92-299.46,31.34-441.93-65.12-125.74-181.62-206.3-314.46-255.84-81.43-30.37-169-49.08-254.65-59.39A1482.62,1482.62,0,0,0,780.76,14,1544.69,1544.69,0,0,0,620.48,24.34c-86.18,10.24-173.4,28.8-254.63,59.24C250.75,126.7,147.7,193.67,76.76,294.6-19.06,447.7,4.69,619.42,82.63,781.53"/><path class="cls-3" d="M940.88,1538.69c55.54,12.1,110.05,13.47,160.74-1,37.12-11.88,68.14-32.41,94.21-58.44"/><path class="cls-5" d="M1353.57,983.11c-8.33,96.83-22.79,189.21-43.39,270.58-21.47,78.92-55.12,166.43-114.35,225.57-81.52,30.41-169.2,49.13-254.95,59.43A1482.9,1482.9,0,0,1,780.76,1549a1543.76,1543.76,0,0,1-160.1-10.32c-86.23-10.22-173.51-28.79-254.78-59.26-115.11-43.13-218.18-110.1-289.12-211-96.33-154-71.65-325.83,5.87-486.87,33.66-69.91,77.27-137.78,125.28-201.26,74.82-99,160.3-187.25,235.31-256,83.42-74.07,207.29-174.19,337.52-240.23,53.17-27,107.41-48.24,160.39-59.74,55.79-12.12,110.19-13.39,160.49,1,37.09,11.89,68.1,32.42,94.16,58.42,59.25,59.13,92.93,146.62,114.4,225.59,20.61,81.41,35.09,173.87,43.42,270.79A2394.49,2394.49,0,0,1,1353.57,983.11Z"/><path class="cls-3" d="M940.88,1538.69c55.54,12.1,110.05,13.47,160.74-1,37.12-11.88,68.14-32.41,94.21-58.44,132.82-49.54,249.3-130.09,314.41-255.83,64.89-143.42,38.12-297.28-31.34-441.94-33.62-70-77.24-137.9-125.3-201.39"/><path class="cls-3" d="M780.74,84.07C727.6,57.13,673.4,35.85,620.48,24.34c-55.85-12.15-110.29-13.44-160.58,1-37,11.85-68,32.33-94,58.28-59.33,59.14-93,146.74-114.52,225.73-20.62,81.48-35.1,174-43.42,271"/><path class="cls-3" d="M365.88,1479.42c26,25.94,57,46.41,94,58.28,50.69,14.45,105.21,13.08,160.76,1"/><path class="cls-3" d="M1353.57,983.11c48.38-63.9,91.88-131.82,125.33-201.62,69.83-145.65,95.92-299.46,31.34-441.93-65.12-125.74-181.62-206.3-314.46-255.84"/><path class="cls-3" d="M941.13,24.33A1482.62,1482.62,0,0,0,780.76,14,1544.69,1544.69,0,0,0,620.48,24.34c-86.18,10.24-173.4,28.8-254.63,59.24C250.75,126.7,147.7,193.67,76.76,294.6-19.06,447.7,4.69,619.42,82.63,781.53"/><path class="cls-6" d="M207.68,983.11c8.33,96.83,22.79,189.21,43.39,270.58,21.47,78.92,55.12,166.43,114.35,225.57,81.52,30.41,169.2,49.13,255,59.43A1482.9,1482.9,0,0,0,780.49,1549a1543.76,1543.76,0,0,0,160.1-10.32c86.23-10.22,173.51-28.79,254.78-59.26,115.11-43.13,218.18-110.1,289.12-211,96.33-154,71.65-325.83-5.87-486.87-33.66-69.91-77.27-137.78-125.28-201.26-74.82-99-160.3-187.25-235.31-256-83.42-74.07-207.29-174.19-337.52-240.23-53.17-27-107.41-48.24-160.39-59.74-55.79-12.12-110.19-13.39-160.49,1-37.09,11.89-68.1,32.42-94.16,58.42-59.25,59.13-92.93,146.62-114.4,225.59C230.46,390.72,216,483.18,207.65,580.1A2394.49,2394.49,0,0,0,207.68,983.11Z"/><path class="cls-3" d="M620.37,1538.69c-55.54,12.1-110,13.47-160.74-1-37.12-11.88-68.14-32.41-94.21-58.44C232.6,1429.72,116.12,1349.17,51,1223.43-13.88,1080,12.89,926.15,82.35,781.49c33.62-70,77.24-137.9,125.3-201.39"/><path class="cls-3" d="M780.51,84.07c53.14-26.94,107.34-48.22,160.26-59.73,55.85-12.15,110.29-13.44,160.58,1,37.05,11.85,68,32.33,94.05,58.28,59.33,59.14,93,146.74,114.52,225.73,20.62,81.48,35.1,174,43.42,271"/><path class="cls-3" d="M1195.37,1479.42c-26,25.94-57,46.41-94,58.28-50.69,14.45-105.21,13.08-160.76,1"/><path class="cls-3" d="M207.68,983.11C159.3,919.21,115.8,851.29,82.35,781.49,12.52,635.84-13.57,482,51,339.56c65.12-125.74,181.62-206.3,314.46-255.84"/><path class="cls-3" d="M620.12,24.33A1482.62,1482.62,0,0,1,780.49,14,1544.69,1544.69,0,0,1,940.77,24.34c86.18,10.24,173.4,28.8,254.63,59.24,115.1,43.12,218.15,110.09,289.09,211,95.82,153.1,72.07,324.82-5.87,486.93"/><path class="cls-7" d="M1510.24,339.57c-65.11-125.74-181.59-206.29-314.41-255.83-81.52-30.41-169.2-49.13-254.95-59.43A1482.9,1482.9,0,0,0,780.76,14a1543.76,1543.76,0,0,0-160.1,10.32C534.43,34.54,447.15,53.11,365.88,83.58c-115.11,43.13-218.18,110.1-289.12,211-96.33,154-71.65,325.83,5.87,486.87,33.66,69.91,77.27,137.78,125.28,201.26,74.82,99,160.3,187.25,235.31,256,83.42,74.07,207.29,174.19,337.52,240.23C911,1412.86,1035,1312.69,1118.29,1238.7c75.27-69.14,160.64-157.18,235.31-255.8,48.06-63.49,91.68-131.36,125.3-201.39C1548.36,636.85,1575.13,483,1510.24,339.57Z"/><path class="cls-3" d="M1353.6,982.9c-8.33,96.92-22.81,189.38-43.42,270.79-21.47,79-55.15,166.46-114.4,225.59-26.06,26-57.07,46.53-94.16,58.42-50.3,14.36-104.7,13.09-160.49,1-53-11.5-107.22-32.78-160.39-59.74-53.14,26.94-107.34,48.22-160.26,59.73-55.85,12.15-110.29,13.44-160.58-1-37-11.85-68-32.33-94-58.28-59.33-59.14-93-146.74-114.52-225.73-20.62-81.48-35.1-174-43.42-271"/><path class="cls-3" d="M365.88,83.58c26-25.94,57-46.41,94-58.28,50.69-14.45,105.21-13.08,160.76-1"/><path class="cls-3" d="M1478.9,781.51c69.83,145.65,95.92,299.46,31.34,441.93-65.12,125.74-181.62,206.3-314.46,255.84-81.43,30.37-169,49.08-254.65,59.39A1482.62,1482.62,0,0,1,780.76,1549a1544.69,1544.69,0,0,1-160.28-10.34c-86.18-10.24-173.4-28.8-254.63-59.24-115.1-43.12-218.15-110.09-289.09-211-95.82-153.1-72.07-324.82,5.87-486.93"/><path class="cls-3" d="M940.88,24.31c55.54-12.1,110.05-13.47,160.74,1,37.12,11.88,68.14,32.41,94.21,58.44"/><path class="cls-8" d="M207.68,579.89c8.33-96.83,22.79-189.21,43.39-270.58,21.47-78.92,55.12-166.43,114.35-225.57,81.52-30.41,169.2-49.13,255-59.43A1482.9,1482.9,0,0,1,780.49,14a1543.76,1543.76,0,0,1,160.1,10.32c86.23,10.22,173.51,28.79,254.78,59.26,115.11,43.13,218.18,110.1,289.12,211,96.33,154,71.65,325.83-5.87,486.87-33.66,69.91-77.27,137.78-125.28,201.26-74.82,99-160.3,187.25-235.31,256-83.42,74.07-207.29,174.19-337.52,240.23-53.17,27-107.41,48.24-160.39,59.74-55.79,12.12-110.19,13.39-160.49-1-37.09-11.89-68.1-32.42-94.16-58.42-59.25-59.13-92.93-146.62-114.4-225.59-20.61-81.41-35.09-173.87-43.42-270.79A2394.49,2394.49,0,0,1,207.68,579.89Z"/><path class="cls-3" d="M620.37,24.31c-55.54-12.1-110-13.47-160.74,1-37.12,11.88-68.14,32.41-94.21,58.44C232.6,133.28,116.12,213.83,51,339.57-13.88,483,12.89,636.85,82.35,781.51c33.62,70,77.24,137.9,125.3,201.39"/><path class="cls-3" d="M780.51,1478.93c53.14,26.94,107.34,48.22,160.26,59.73,55.85,12.15,110.29,13.44,160.58-1,37.05-11.85,68-32.33,94.05-58.28,59.33-59.14,93-146.74,114.52-225.73,20.62-81.48,35.1-174,43.42-271"/><path class="cls-3" d="M1195.37,83.58c-26-25.94-57-46.41-94-58.28-50.69-14.45-105.21-13.08-160.76-1"/><path class="cls-3" d="M207.68,579.89C159.3,643.79,115.8,711.71,82.35,781.51,12.52,927.16-13.57,1081,51,1223.44c65.12,125.74,181.62,206.3,314.46,255.84"/><path class="cls-3" d="M620.12,1538.67A1482.62,1482.62,0,0,0,780.49,1549a1544.69,1544.69,0,0,0,160.28-10.34c86.18-10.24,173.4-28.8,254.63-59.24,115.1-43.12,218.15-110.09,289.09-211,95.82-153.1,72.07-324.82-5.87-486.93"/><path class="cls-9" d="M1353.57,579.89c-8.33-96.83-22.79-189.21-43.39-270.58-21.47-78.92-55.12-166.43-114.35-225.57-81.52-30.41-169.2-49.13-254.95-59.43A1482.9,1482.9,0,0,0,780.76,14a1543.76,1543.76,0,0,0-160.1,10.32C534.43,34.54,447.15,53.11,365.88,83.58c-115.11,43.13-218.18,110.1-289.12,211-96.33,154-71.65,325.83,5.87,486.87,33.66,69.91,77.27,137.78,125.28,201.26,74.82,99,160.3,187.25,235.31,256,83.42,74.07,207.29,174.19,337.52,240.23,53.17,27,107.41,48.24,160.39,59.74,55.79,12.12,110.19,13.39,160.49-1,37.09-11.89,68.1-32.42,94.16-58.42,59.25-59.13,92.93-146.62,114.4-225.59,20.61-81.41,35.09-173.87,43.42-270.79A2394.49,2394.49,0,0,0,1353.57,579.89Z"/><path class="cls-3" d="M940.88,24.31c55.54-12.1,110.05-13.47,160.74,1,37.12,11.88,68.14,32.41,94.21,58.44,132.82,49.54,249.3,130.09,314.41,255.83,64.89,143.42,38.12,297.28-31.34,441.94-33.62,70-77.24,137.9-125.3,201.39"/><path class="cls-3" d="M780.74,1478.93c-53.14,26.94-107.34,48.22-160.26,59.73-55.85,12.15-110.29,13.44-160.58-1-37-11.85-68-32.33-94-58.28-59.33-59.14-93-146.74-114.52-225.73-20.62-81.48-35.1-174-43.42-271"/><path class="cls-3" d="M365.88,83.58c26-25.94,57-46.41,94-58.28,50.69-14.45,105.21-13.08,160.76-1"/><path class="cls-3" d="M1353.57,579.89c48.38,63.9,91.88,131.82,125.33,201.62,69.83,145.65,95.92,299.46,31.34,441.93-65.12,125.74-181.62,206.3-314.46,255.84"/><path class="cls-3" d="M941.13,1538.67A1482.62,1482.62,0,0,1,780.76,1549a1544.69,1544.69,0,0,1-160.28-10.34c-86.18-10.24-173.4-28.8-254.63-59.24-115.1-43.12-218.15-110.09-289.09-211-95.82-153.1-72.07-324.82,5.87-486.93"/><path class="cls-10" d="M1353.57,579.89c-8.33-96.83-22.79-189.21-43.39-270.58-21.47-78.92-55.12-166.43-114.35-225.57-81.52-30.41-169.2-49.13-254.95-59.43A1482.9,1482.9,0,0,0,780.76,14a1543.76,1543.76,0,0,0-160.1,10.32C534.43,34.54,447.15,53.11,365.88,83.58c-115.11,43.13-218.18,110.1-289.12,211-96.33,154-71.65,325.83,5.87,486.87,33.66,69.91,77.27,137.78,125.28,201.26,74.82,99,160.3,187.25,235.31,256,83.42,74.07,207.29,174.19,337.52,240.23,53.17,27,107.41,48.24,160.39,59.74,55.79,12.12,110.19,13.39,160.49-1,37.09-11.89,68.1-32.42,94.16-58.42,59.25-59.13,92.93-146.62,114.4-225.59,20.61-81.41,35.09-173.87,43.42-270.79A2394.49,2394.49,0,0,0,1353.57,579.89Z"/><path class="cls-3" d="M940.88,24.31c55.54-12.1,110.05-13.47,160.74,1,37.12,11.88,68.14,32.41,94.21,58.44,132.82,49.54,249.3,130.09,314.41,255.83,64.89,143.42,38.12,297.28-31.34,441.94-33.62,70-77.24,137.9-125.3,201.39"/><path class="cls-3" d="M780.74,1478.93c-53.14,26.94-107.34,48.22-160.26,59.73-55.85,12.15-110.29,13.44-160.58-1-37-11.85-68-32.33-94-58.28-59.33-59.14-93-146.74-114.52-225.73-20.62-81.48-35.1-174-43.42-271"/><path class="cls-3" d="M365.88,83.58c26-25.94,57-46.41,94-58.28,50.69-14.45,105.21-13.08,160.76-1"/><path class="cls-3" d="M1353.57,579.89c48.38,63.9,91.88,131.82,125.33,201.62,69.83,145.65,95.92,299.46,31.34,441.93-65.12,125.74-181.62,206.3-314.46,255.84"/><path class="cls-3" d="M941.13,1538.67A1482.62,1482.62,0,0,1,780.76,1549a1544.69,1544.69,0,0,1-160.28-10.34c-86.18-10.24-173.4-28.8-254.63-59.24-115.1-43.12-218.15-110.09-289.09-211-95.82-153.1-72.07-324.82,5.87-486.93"/><path class="cls-11" d="M207.68,579.89c8.33-96.83,22.79-189.21,43.39-270.58,21.47-78.92,55.12-166.43,114.35-225.57,81.52-30.41,169.2-49.13,255-59.43A1482.9,1482.9,0,0,1,780.49,14a1543.76,1543.76,0,0,1,160.1,10.32c86.23,10.22,173.51,28.79,254.78,59.26,115.11,43.13,218.18,110.1,289.12,211,96.33,154,71.65,325.83-5.87,486.87-33.66,69.91-77.27,137.78-125.28,201.26-74.82,99-160.3,187.25-235.31,256-83.42,74.07-207.29,174.19-337.52,240.23-53.17,27-107.41,48.24-160.39,59.74-55.79,12.12-110.19,13.39-160.49-1-37.09-11.89-68.1-32.42-94.16-58.42-59.25-59.13-92.93-146.62-114.4-225.59-20.61-81.41-35.09-173.87-43.42-270.79A2394.49,2394.49,0,0,1,207.68,579.89Z"/><path class="cls-3" d="M620.37,24.31c-55.54-12.1-110-13.47-160.74,1-37.12,11.88-68.14,32.41-94.21,58.44C232.6,133.28,116.12,213.83,51,339.57-13.88,483,12.89,636.85,82.35,781.51c33.62,70,77.24,137.9,125.3,201.39"/><path class="cls-3" d="M780.51,1478.93c53.14,26.94,107.34,48.22,160.26,59.73,55.85,12.15,110.29,13.44,160.58-1,37.05-11.85,68-32.33,94.05-58.28,59.33-59.14,93-146.74,114.52-225.73,20.62-81.48,35.1-174,43.42-271"/><path class="cls-3" d="M1195.37,83.58c-26-25.94-57-46.41-94-58.28-50.69-14.45-105.21-13.08-160.76-1"/><path class="cls-3" d="M207.68,579.89C159.3,643.79,115.8,711.71,82.35,781.51,12.52,927.16-13.57,1081,51,1223.44c65.12,125.74,181.62,206.3,314.46,255.84"/><path class="cls-3" d="M620.12,1538.67A1482.62,1482.62,0,0,0,780.49,1549a1544.69,1544.69,0,0,0,160.28-10.34c86.18-10.24,173.4-28.8,254.63-59.24,115.1-43.12,218.15-110.09,289.09-211,95.82-153.1,72.07-324.82-5.87-486.93"/><g class="cls-12"><path class="cls-13" d="M1478.9,781.51c-33.45-69.8-77-137.72-125.33-201.62-89.43-118.15-195.54-222.57-285.68-299.7C993.31,218.6,890.26,139.8,780.76,84.13,671.25,139.8,568.21,218.61,493.63,280.19c-89.71,76.56-196,181.29-285.7,299.86-48.31,63.87-91.81,131.76-125.3,201.42C4.69,943.58-19.06,1115.3,76.76,1268.4c70.94,100.93,174,167.9,289.09,211,81.23,30.44,168.45,49,254.63,59.24A1544.69,1544.69,0,0,0,780.76,1549a1482.62,1482.62,0,0,0,160.37-10.33c85.64-10.31,173.22-29,254.65-59.39,132.84-49.54,249.34-130.1,314.46-255.84C1574.82,1081,1548.73,927.16,1478.9,781.51Z"/><path class="cls-3" d="M82.63,781.47c-77.52-161-102.2-332.91-5.87-486.87,70.94-100.92,174-167.89,289.12-211,81.27-30.47,168.55-49,254.78-59.26A1543.76,1543.76,0,0,1,780.76,14,1482.9,1482.9,0,0,1,940.88,24.31c85.75,10.3,173.43,29,254.95,59.43,132.82,49.54,249.3,130.09,314.41,255.83,64.89,143.42,38.12,297.28-31.34,441.94"/><path class="cls-3" d="M365.85,1479.42c26,25.95,57,46.43,94,58.28,50.29,14.4,104.73,13.11,160.58,1"/><path class="cls-3" d="M207.93,580.05c8.33-96.91,22.8-189.34,43.41-270.74,21.48-79,55.2-166.59,114.54-225.73,26-25.94,57-46.41,94-58.28,50.69-14.45,105.21-13.08,160.76-1,53.23,11.58,107.41,33,160.1,59.81,52.69-26.8,106.88-48.23,160.12-59.82,55.54-12.1,110.05-13.47,160.74,1,37.12,11.88,68.14,32.41,94.21,58.44,59.23,59.14,92.88,146.65,114.35,225.57,20.6,81.37,35.06,173.75,43.39,270.58"/><path class="cls-3" d="M941.13,1538.67c55.79,12.12,110.19,13.39,160.49-1,37.09-11.89,68.1-32.42,94.16-58.42"/></g><path class="cls-3" d="M780.49,1549c250.12-3.46,551.37-63.49,704-280.6C1687.82,943.42,1352,538.66,1118,324.3,964.68,188.15,674.64-36.08,459.64,25.3c-121.43,39-177.66,170.31-208.57,284-69.19,273.27-69.21,671,0,944.38,30.92,113.65,87.11,245.14,208.57,284,200.25,57.12,460.08-132.77,608-254.89,250.5-213.79,630.31-647.2,416.87-988.2C1331.86,77.47,1030.61,17.49,780.49,14,519.17,16.84,181.68,87.29,51,339.57c-152.75,337,201.72,737.34,442.36,943.24,147.91,122.16,407.77,312,608,254.89,121.43-39,177.65-170.31,208.56-284,69.19-273.27,69.21-671,0-944.38C1279,195.66,1222.8,64.17,1101.35,25.3,886.6-36.18,596.08,188.28,443,324.3,219.12,529.9-94.09,902.74,51,1223.43,181.68,1475.74,519.17,1546.14,780.49,1549"/><path class="cls-14" d="M780.75,1549c-250.12-3.46-551.37-63.49-704-280.6-203.33-325,132.46-729.74,366.46-944.1C596.57,188.15,886.6-36.08,1101.61,25.3c121.43,39,177.65,170.31,208.56,284,69.19,273.27,69.21,671,0,944.38-30.93,113.65-87.12,245.14-208.57,284-200.26,57.12-460.08-132.77-608-254.89C243.13,1069-136.69,635.61,76.75,294.61,229.38,77.47,530.63,17.49,780.75,14c261.33,2.84,598.81,73.29,729.48,325.57,152.75,337-201.71,737.34-442.35,943.24C920,1405,660.1,1594.8,459.89,1537.7c-121.42-39-177.65-170.31-208.56-284-69.19-273.27-69.21-671,0-944.38,30.92-113.65,87.11-245.14,208.56-284,214.76-61.48,505.27,163,658.39,299,223.84,205.6,537.05,578.44,392,899.13-130.66,252.31-468.16,322.71-729.48,325.57"/></g></g></g></svg>